<svg width="189" height="35" viewBox="0 0 189 35" fill="none" xmlns="http://www.w3.org/2000/svg">
<path d="M18.0483 32.3879C11.5962 32.3879 6.46839 26.138 6.46839 17.688C6.46839 8.53025 10.1603 2.60662 17.4325 2.60662C23.4567 2.60662 25.8463 5.74396 26.7863 9.65527H29.0832C28.7917 7.3306 28.3857 3.28937 28.4102 2.38825C26.4076 1.96809 22.6611 0 17.0619 0C7.15773 0 0 6.87174 0 17.6907C0 28.272 8.25305 35 16.972 35C20.9991 35 24.9907 34.0381 28.3612 31.5006C28.5192 30.6464 29.0805 28.1752 29.6418 26.1906H27.1323C25.2741 30.6906 21.811 32.3879 18.0483 32.3879ZM184.858 7.00442C184.858 4.7682 185.763 3.88367 188.324 3.88367H189V1.22453H177.428V3.88367H178.161C180.717 3.88367 181.635 4.7682 181.635 7.00442V25.2784L165.41 1.22453H156.873V3.88367H157.674C159.26 3.88367 160.486 4.53049 160.486 7.07076V28.6175C160.486 30.804 158.933 31.4923 157.751 31.4923H156.655V34.1542H167.726V31.4923H166.666C165.491 31.4923 163.71 31.1993 163.71 28.6175V8.48878L181.055 34.1569H184.856V7.00442H184.858ZM150.879 26.0524C150.879 28.9852 149.473 31.495 145.879 31.495H136.228V18.5863H142.048C144.386 18.5863 144.907 20.5848 144.907 22.0001V23.3711H147.44V11.0318H144.907V12.1237C144.907 13.5362 144.386 15.5374 142.048 15.5374H136.228V3.8809H145.438C150.048 3.8809 150.162 7.78392 150.162 9.22682V9.94827H152.596V1.22453H126.785V3.88367H127.354C129.583 3.88367 130.727 4.15732 130.727 6.19728V28.7723C130.727 31.1329 129.196 31.4978 127.757 31.4978H126.94V34.1569H153.209V25.1734H150.874V26.0524H150.879ZM120.82 25.7953C120.82 28.5318 120.074 31.4978 114.314 31.4978H104.328L122.924 3.88367V1.22177H98.3609V10.139H100.843V9.04438C100.843 6.23045 102.135 3.88643 105.884 3.88643C108.151 3.88643 116.308 3.91407 116.308 3.91407L97.7805 31.5006V34.1597H123.245V25.2148H120.823V25.7953H120.82ZM57.2836 31.4923H55.8259V34.1542H70.6454V31.4923H69.1905C67.1769 31.4923 65.8773 30.5884 65.8773 28.3798V3.8809H70.8389C73.7516 3.8809 74.5308 5.90152 74.5308 8.08522V9.88746H76.9667V1.22453H49.5047V9.89022H51.946V8.08798C51.946 5.90428 52.7225 3.88367 55.6352 3.88367H60.5941V28.3798C60.5941 30.5884 59.2999 31.4923 57.2836 31.4923ZM89.7672 28.377V6.79158C89.7672 4.19602 90.5792 3.8809 92.729 3.8809H94.0995V1.22177H80.0401V3.88367H81.5469C83.5577 3.88367 84.4895 4.58024 84.4895 6.78882V28.3743C84.4895 30.5801 83.3206 31.4923 81.3126 31.4923H79.9502V34.1514H94.1839V31.4923H92.887C90.7345 31.495 89.7672 30.9726 89.7672 28.377ZM46.5184 34.1542H32.2874V31.495H33.6443C35.6579 31.495 36.824 30.5828 36.824 28.377V6.79158C36.824 4.58024 35.8949 3.88643 33.8814 3.88643H32.3801V1.22453H46.434V3.88367H45.0662C42.9137 3.88367 42.1072 4.19878 42.1072 6.79435V28.3798C42.1072 30.9726 43.0744 31.4978 45.2296 31.4978H46.5211V34.1542H46.5184Z" fill="black"/>
</svg>
